<svg height="512pt" viewBox="0 -39 512.00082 512" width="512pt" xmlns="http://www.w3.org/2000/svg"><path d="m457.824219 42.015625c-49.375-50.40625-127.425781-55.230469-183.222657-15.703125-11.167968 7.90625-26.035156 7.90625-37.199218 0-55.800782-39.527344-133.851563-34.703125-183.226563 15.703125-155.5625 158.800781 63.65625 320.164063 160.171875 379.695313 25.546875 15.757812 57.761719 15.757812 83.304688 0 96.515625-59.53125 315.738281-220.894532 160.171875-379.695313zm0 0" fill="#ff737d"/><path d="m318.4375 5.386719c-15.4375 4.351562-30.292969 11.332031-43.835938 20.925781-11.167968 7.90625-26.035156 7.90625-37.199218 0-55.800782-39.527344-133.851563-34.703125-183.226563 15.703125-139.753906 142.664063 22.96875 287.390625 127.464844 358.5-20.304687-27.335937-33.503906-55.101563-41.75-81.722656-23.429687-75.652344 8.09375-157.707031 75.65625-199.03125 71.011719-43.433594 102.890625-114.375 102.890625-114.375zm0 0" fill="#f46262"/><path d="m512 305.671875c0 53.449219-43.332031 96.78125-96.78125 96.78125-53.453125 0-96.78125-43.332031-96.78125-96.78125 0-53.453125 43.328125-96.785156 96.78125-96.785156 53.449219 0 96.78125 43.332031 96.78125 96.785156zm0 0" fill="#abebf4"/><path d="m402.652344 287.851562c0-30.773437 14.367187-58.191406 36.753906-75.917968-7.730469-1.988282-15.835938-3.046875-24.1875-3.046875-53.453125 0-96.78125 43.332031-96.78125 96.78125 0 53.453125 43.328125 96.785156 96.78125 96.785156 22.675781 0 43.535156-7.804687 60.035156-20.867187-41.75-10.738282-72.601562-48.632813-72.601562-93.734376zm0 0" fill="#8ed7e8"/><path d="m459.714844 290.214844h-29.042969v-29.042969c0-8.535156-6.917969-15.453125-15.453125-15.453125s-15.453125 6.917969-15.453125 15.453125v29.042969h-29.042969c-8.535156 0-15.453125 6.921875-15.453125 15.453125 0 8.535156 6.917969 15.453125 15.453125 15.453125h29.042969v29.042968c0 8.535157 6.917969 15.453126 15.453125 15.453126s15.453125-6.917969 15.453125-15.453126v-29.042968h29.042969c8.535156 0 15.453125-6.917969 15.453125-15.453125 0-8.53125-6.917969-15.453125-15.453125-15.453125zm0 0" fill="#fff"/><path d="m256 193.332031c-15.988281 0-28.949219-12.960937-28.949219-28.949219v-21.042968c0-4.367188 3.539063-7.902344 7.902344-7.902344h42.09375c4.363281 0 7.902344 3.535156 7.902344 7.902344v21.042968c0 15.988282-12.960938 28.949219-28.949219 28.949219zm0 0" fill="#57565c"/><path d="m190.046875 164.382812c0-13.578124-13.824219-24.589843-30.878906-24.589843-17.054688 0-30.878907 11.011719-30.878907 24.589843 0 13.582032 13.824219 24.589844 30.878907 24.589844 17.054687 0 30.878906-11.007812 30.878906-24.589844zm0 0" fill="#ffa6bb"/><path d="m383.710938 164.382812c0-13.578124-13.824219-24.589843-30.878907-24.589843-17.050781 0-30.875 11.011719-30.875 24.589843 0 13.582032 13.824219 24.589844 30.875 24.589844 17.054688 0 30.878907-11.007812 30.878907-24.589844zm0 0" fill="#ffa6bb"/><g fill="#57565c"><path d="m339.09375 150.886719c-4.269531 0-7.726562-3.460938-7.726562-7.726563v-12.828125c0-4.265625 3.457031-7.726562 7.726562-7.726562 4.265625 0 7.722656 3.460937 7.722656 7.726562v12.828125c0 4.265625-3.457031 7.726563-7.722656 7.726563zm0 0"/><path d="m172.910156 150.886719c-4.269531 0-7.726562-3.460938-7.726562-7.726563v-12.828125c0-4.265625 3.457031-7.726562 7.726562-7.726562 4.265625 0 7.726563 3.460937 7.726563 7.726562v12.828125c0 4.265625-3.460938 7.726563-7.726563 7.726563zm0 0"/></g></svg>