<svg width="339" height="351" viewBox="0 0 339 351" fill="none" xmlns="http://www.w3.org/2000/svg">
<path d="M169.5 91.5267C74.6111 -4.4917 -82.571 150.783 164.839 288.025C167.747 289.637 171.253 289.637 174.161 288.025C421.57 150.783 264.39 -4.4917 169.5 91.5267V91.5267Z" fill="#FF889E"/>
<path d="M117.332 62.9058C32.4797 48.4428 -39.9742 174.412 164.839 288.025C167.747 289.638 171.253 289.638 174.161 288.025C177.083 286.404 179.932 284.78 182.742 283.153C9.67273 183.036 47.7659 75.0674 117.332 62.9058V62.9058Z" fill="#FF748F"/>
<path d="M131.101 126.472C128.358 126.472 126.135 124.17 126.135 121.331C126.135 117.847 123.398 115.013 120.033 115.013C116.669 115.013 113.932 117.847 113.932 121.331C113.932 124.17 111.709 126.472 108.966 126.472C106.223 126.472 104 124.17 104 121.331C104 112.177 111.192 104.73 120.033 104.73C128.874 104.73 136.067 112.177 136.067 121.331C136.067 124.17 133.843 126.472 131.101 126.472Z" fill="#423E4F"/>
<path d="M230.034 126.472C227.291 126.472 225.068 124.17 225.068 121.331C225.068 117.847 222.331 115.013 218.966 115.013C215.601 115.013 212.864 117.847 212.864 121.331C212.864 124.17 210.641 126.472 207.898 126.472C205.155 126.472 202.933 124.17 202.933 121.331C202.933 112.177 210.125 104.73 218.966 104.73C227.807 104.73 235 112.177 235 121.331C235 124.17 232.776 126.472 230.034 126.472Z" fill="#423E4F"/>
<path d="M169.5 145.404C163.566 145.404 157.922 142.743 154.016 138.103C152.214 135.962 152.43 132.714 154.497 130.848C156.564 128.983 159.701 129.205 161.504 131.346C163.522 133.745 166.437 135.121 169.5 135.121C172.563 135.121 175.477 133.745 177.496 131.347C179.297 129.205 182.434 128.983 184.501 130.848C186.569 132.713 186.785 135.961 184.983 138.102C181.078 142.743 175.435 145.404 169.5 145.404V145.404Z" fill="#423E4F"/>
<path d="M150.892 227.831C148.81 227.831 146.947 226.485 146.23 224.456L126.407 168.374L114.514 202.022C113.797 204.049 111.935 205.397 109.851 205.397H4.96582C2.2227 205.397 0 203.095 0 200.255C0 197.416 2.2227 195.113 4.96582 195.113H106.379L121.743 151.646C122.46 149.62 124.322 148.272 126.407 148.272C128.491 148.272 130.353 149.62 131.07 151.646L150.667 207.089L164.788 163.096C165.462 160.995 167.361 159.576 169.5 159.576C171.639 159.576 173.538 160.995 174.212 163.096L188.332 207.089L207.929 151.646C208.646 149.62 210.508 148.272 212.593 148.272C214.677 148.272 216.54 149.62 217.256 151.646L232.62 195.113H334.034C336.777 195.113 339 197.416 339 200.255C339 203.095 336.777 205.397 334.034 205.397H229.149C227.065 205.397 225.203 204.049 224.486 202.022L212.593 168.374L192.77 224.456C192.044 226.509 190.136 227.857 188.033 227.83C185.922 227.797 184.061 226.385 183.395 224.311L169.5 181.021L155.605 224.31C154.939 226.385 153.079 227.797 150.967 227.83C150.942 227.83 150.917 227.831 150.892 227.831V227.831Z" fill="#76E6D5"/>
</svg>
