<?xml version="1.0" encoding="iso-8859-1"?>
<!-- Generator: Adobe Illustrator 19.0.0, SVG Export Plug-In . SVG Version: 6.00 Build 0)  -->
<svg version="1.1" id="Capa_1" xmlns="http://www.w3.org/2000/svg" xmlns:xlink="http://www.w3.org/1999/xlink" x="0px" y="0px"
	 viewBox="0 0 512 512" style="enable-background:new 0 0 512 512;" xml:space="preserve">
<path style="fill:#FFBA4D;" d="M413.332,81.099H98.668c-20.529,0-37.171,16.643-37.171,37.171v356.559
	c0,20.529,16.643,37.171,37.171,37.171h314.665c20.529,0,37.171-16.643,37.171-37.171V118.27
	C450.503,97.74,433.862,81.099,413.332,81.099z"/>
<path style="fill:#FAA330;" d="M108.498,81.099v44.865c0,25.596,20.824,46.421,46.421,46.421h202.164
	c25.597,0,46.421-20.824,46.421-46.421V81.099H108.498z"/>
<path style="fill:#F0F0F0;" d="M98.668,476.514c-0.929,0-1.685-0.756-1.685-1.685V118.27c0-0.929,0.756-1.685,1.685-1.685h314.665
	c0.929,0,1.685,0.756,1.685,1.685v356.559c0,0.929-0.756,1.685-1.685,1.685H98.668z"/>
<path style="fill:#D9D9D9;" d="M108.498,116.585v9.379c0,25.596,20.824,46.421,46.421,46.421h202.164
	c25.597,0,46.421-20.824,46.421-46.421v-9.379C403.503,116.585,108.498,116.585,108.498,116.585z"/>
<path style="fill:#BCBCBC;" d="M357.081,45.714h-55.367C301.714,20.467,281.248,0,256,0s-45.714,20.467-45.714,45.714h-55.367
	c-8.569,0-15.516,6.947-15.516,15.516v64.735c0,8.569,6.947,15.516,15.516,15.516h202.163c8.569,0,15.516-6.947,15.516-15.516V61.23
	C372.597,52.661,365.65,45.714,357.081,45.714z"/>
<circle style="fill:#E3E3E3;" cx="256" cy="43.039" r="16.294"/>
<g>
	<path style="fill:#3B484A;" d="M184.77,105.017c-4.268,0-7.726-3.459-7.726-7.726V84.399c0-4.267,3.458-7.726,7.726-7.726
		c4.268,0,7.726,3.459,7.726,7.726V97.29C192.497,101.557,189.038,105.017,184.77,105.017z"/>
	<path style="fill:#3B484A;" d="M327.229,105.017c-4.268,0-7.726-3.459-7.726-7.726V84.399c0-4.267,3.458-7.726,7.726-7.726
		s7.726,3.459,7.726,7.726V97.29C334.955,101.557,331.497,105.017,327.229,105.017z"/>
	<path style="fill:#3B484A;" d="M256,111.897c-9.081,0-17.61-3.798-23.397-10.42c-2.809-3.213-2.481-8.094,0.732-10.902
		c3.212-2.808,8.094-2.48,10.901,0.732c2.855,3.265,7.141,5.136,11.764,5.136s8.909-1.872,11.764-5.136
		c2.808-3.213,7.689-3.541,10.901-0.732c3.213,2.808,3.542,7.689,0.732,10.902C273.609,108.1,265.081,111.897,256,111.897z"/>
	<path style="fill:#3B484A;" d="M341.167,318.301H170.834c-4.268,0-7.726-3.459-7.726-7.726c0-4.267,3.458-7.726,7.726-7.726
		h170.333c4.268,0,7.726,3.459,7.726,7.726C348.893,314.842,345.434,318.301,341.167,318.301z"/>
	<path style="fill:#3B484A;" d="M341.167,364.94H170.834c-4.268,0-7.726-3.459-7.726-7.726c0-4.267,3.458-7.726,7.726-7.726h170.333
		c4.268,0,7.726,3.459,7.726,7.726C348.893,361.48,345.434,364.94,341.167,364.94z"/>
	<path style="fill:#3B484A;" d="M341.167,411.579H170.834c-4.268,0-7.726-3.459-7.726-7.726s3.458-7.726,7.726-7.726h170.333
		c4.268,0,7.726,3.459,7.726,7.726S345.434,411.579,341.167,411.579z"/>
</g>
<polygon style="fill:#FC7C81;" points="299.701,207.866 272.294,207.866 272.294,180.46 239.706,180.46 239.706,207.866 
	212.299,207.866 212.299,240.456 239.706,240.456 239.706,267.863 272.294,267.863 272.294,240.456 299.701,240.456 "/>
<g>
</g>
<g>
</g>
<g>
</g>
<g>
</g>
<g>
</g>
<g>
</g>
<g>
</g>
<g>
</g>
<g>
</g>
<g>
</g>
<g>
</g>
<g>
</g>
<g>
</g>
<g>
</g>
<g>
</g>
</svg>
