<svg width="292" height="304" viewBox="0 0 292 304" fill="none" xmlns="http://www.w3.org/2000/svg">
<path d="M292 113.577V266.013C292 277.213 283.269 286.303 272.506 286.303H149.635C145.857 286.303 142.325 285.183 139.341 283.238C133.818 279.66 130.14 273.28 130.14 266.014V113.577C130.14 106.591 133.642 100.181 139.265 96.3947C148.671 90.0517 153.677 81.4578 156.309 73.4386C156.344 73.3347 156.373 73.2367 156.409 73.1328C158.912 65.3339 159.176 58.1097 159.07 54.1221H263.075C262.964 58.1655 263.234 65.5239 265.831 73.4392C268.457 81.4583 273.469 90.0523 282.876 96.3953C288.504 100.181 292 106.591 292 113.577Z" fill="#FFEBDC"/>
<path d="M176.303 93.306V263.071C176.303 274.191 167.613 283.238 156.932 283.238H139.341C133.818 279.659 130.14 273.279 130.14 266.013V113.577C130.14 106.591 133.642 100.181 139.265 96.3947C148.671 90.0517 153.677 81.4578 156.309 73.4386C156.344 73.3347 156.373 73.2367 156.409 73.1328H156.932C167.613 73.1328 176.303 82.1792 176.303 93.306Z" fill="#FFDBB1"/>
<path d="M209.115 262.514C209.115 271.192 206.834 279.328 202.856 286.302H149.637C138.873 286.302 130.144 277.214 130.144 266.014V232.002C133.282 228.197 137.019 224.893 141.254 222.267C142.633 221.418 143.97 220.685 145.325 220.038C146.088 219.671 146.798 219.354 147.496 219.067C152.248 217.082 157.275 215.971 162.443 215.763L162.625 215.757C163.141 215.744 163.657 215.733 164.18 215.733C179.784 215.733 194.028 223.959 202.293 237.731C206.757 245.145 209.115 253.719 209.115 262.514Z" fill="#FFDBB1"/>
<path d="M156.31 73.4368C158.908 65.5215 159.177 58.1667 159.069 54.115H263.071C262.963 58.1661 263.232 65.5209 265.831 73.4368H156.31Z" fill="#FFDBB1"/>
<path d="M291.998 113.576V266.011C291.998 276.638 284.156 285.357 274.164 286.23C278.498 282.509 281.264 276.875 281.264 270.567V118.132C281.264 111.151 277.768 104.744 272.141 100.948C253.45 88.3518 252.115 66.8301 252.342 58.6714L252.348 54.115H263.07C262.849 62.2737 264.184 83.7954 282.874 96.3918C288.502 100.182 291.998 106.595 291.998 113.576Z" fill="#FFDBB1"/>
<path d="M271.704 63.514H150.436C147.84 63.514 145.735 61.3231 145.735 58.6203V11.4819C145.735 8.77919 147.84 6.58826 150.436 6.58826H271.704C274.3 6.58826 276.404 8.77919 276.404 11.4819V58.6209C276.404 61.3231 274.3 63.514 271.704 63.514Z" fill="#B5F2D9"/>
<path d="M271.704 63.514H150.436C147.84 63.514 145.735 61.3231 145.735 58.6203V54.1138H276.404V58.6203C276.404 61.3231 274.3 63.514 271.704 63.514Z" fill="#20CFA2"/>
<path d="M165.754 66.9982C163.32 66.9982 161.348 64.9444 161.348 62.4108V8.45856C161.348 5.92443 163.32 3.87125 165.754 3.87125C168.188 3.87125 170.16 5.92503 170.16 8.45856V62.4108C170.16 64.945 168.188 66.9982 165.754 66.9982Z" fill="#20CFA2"/>
<path d="M195.964 66.9982C193.53 66.9982 191.558 64.9444 191.558 62.4108V8.45856C191.558 5.92443 193.53 3.87125 195.964 3.87125C198.397 3.87125 200.37 5.92503 200.37 8.45856V62.4108C200.371 64.945 198.398 66.9982 195.964 66.9982Z" fill="#20CFA2"/>
<path d="M226.175 66.9982C223.741 66.9982 221.769 64.9444 221.769 62.4108V8.45856C221.769 5.92443 223.742 3.87125 226.175 3.87125C228.609 3.87125 230.581 5.92503 230.581 8.45856V62.4108C230.581 64.945 228.609 66.9982 226.175 66.9982Z" fill="#20CFA2"/>
<path d="M256.386 66.9982C253.952 66.9982 251.979 64.9444 251.979 62.4108V8.45856C251.979 5.92443 253.952 3.87125 256.386 3.87125C258.819 3.87125 260.792 5.92503 260.792 8.45856V62.4108C260.792 64.945 258.82 66.9982 256.386 66.9982Z" fill="#20CFA2"/>
<path d="M216.857 88.0466H172.803C170.369 88.0466 168.397 85.9928 168.397 83.4593C168.397 80.9252 170.369 78.872 172.803 78.872H216.857C219.291 78.872 221.264 80.9258 221.264 83.4593C221.264 85.9928 219.291 88.0466 216.857 88.0466Z" fill="#FFDBB1"/>
<path d="M239.364 88.0466H230.435C228.001 88.0466 226.029 85.9928 226.029 83.4593C226.029 80.9252 228.001 78.872 230.435 78.872H239.364C241.798 78.872 243.77 80.9258 243.77 83.4593C243.77 85.9928 241.798 88.0466 239.364 88.0466Z" fill="#FFDBB1"/>
<path d="M267.585 139.971H154.555V239.833H267.585V139.971Z" fill="#FF407E"/>
<path d="M176.289 139.971H154.555V239.833H176.289V139.971Z" fill="#E2035A"/>
<path d="M267.585 212.194H154.555V239.83H267.585V212.194Z" fill="#B5F2D9"/>
<path d="M176.289 212.2H154.555V239.832H176.289V212.2Z" fill="#20CFA2"/>
<path d="M203.484 239.831H154.553V216.806C157.134 216.22 159.768 215.871 162.443 215.762L162.625 215.756C163.141 215.743 163.657 215.731 164.18 215.731C179.784 215.731 194.028 223.958 202.293 237.73C202.71 238.42 203.108 239.123 203.484 239.831Z" fill="#20CFA2"/>
<path d="M233.276 226.016C233.276 228.548 231.308 230.603 228.87 230.603H193.265C190.833 230.603 188.859 228.548 188.859 226.016C188.859 225.202 189.065 224.437 189.423 223.777C190.175 222.377 191.615 221.428 193.265 221.428H228.87C231.308 221.428 233.276 223.483 233.276 226.016Z" fill="#FF407E"/>
<path d="M197.061 230.603H193.265C190.833 230.603 188.859 228.548 188.859 226.016C188.859 225.202 189.065 224.438 189.423 223.777C192.19 225.728 194.751 228.015 197.061 230.603Z" fill="#E2035A"/>
<path d="M223.24 170.312H218.009V164.867C218.009 160.877 214.903 157.643 211.07 157.643C207.238 157.643 204.131 160.877 204.131 164.867V170.312H198.901C195.069 170.312 191.962 173.547 191.962 177.537C191.962 181.527 195.069 184.761 198.901 184.761H204.131V190.206C204.131 194.196 207.238 197.43 211.07 197.43C214.903 197.43 218.009 194.196 218.009 190.206V184.761H223.24C227.072 184.761 230.179 181.527 230.179 177.537C230.179 173.547 227.072 170.312 223.24 170.312Z" fill="#B5F2D9"/>
<path d="M167.488 93.3037V263.07C167.488 269.14 162.766 274.063 156.935 274.063H93.6493C89.3788 274.063 85.7123 271.413 84.0521 267.614C82.7501 270.6 80.2036 272.872 77.1006 273.709C76.2559 273.941 75.364 274.063 74.4492 274.063H10.5474C4.72219 274.063 0 269.14 0 263.07V93.3037C0 87.2332 4.72219 82.3104 10.5474 82.3104H74.4486C78.7191 82.3104 82.3913 84.9609 84.0515 88.7538C85.7117 84.9609 89.3782 82.3104 93.6487 82.3104H156.934C162.766 82.3104 167.488 87.2326 167.488 93.3037Z" fill="#B5F2D9"/>
<path d="M167.488 215.86V263.069C167.488 269.14 162.766 274.063 156.935 274.063H93.6493C89.3788 274.063 85.7123 271.412 84.0521 267.613C82.7501 270.6 80.2036 272.871 77.1005 273.708C73.4163 258.293 77.3526 241.296 88.9037 229.271C97.3923 220.44 108.673 215.572 120.675 215.572C128.466 215.572 135.951 217.637 142.568 221.49C143.489 220.959 144.404 220.477 145.325 220.037C146.088 219.67 146.798 219.353 147.496 219.066C152.248 217.081 157.275 215.969 162.443 215.762L162.625 215.756C163.141 215.743 163.657 215.731 164.18 215.731C165.289 215.732 166.391 215.775 167.488 215.86Z" fill="#20CFA2"/>
<path d="M167.487 93.3019V263.07C167.487 269.138 162.763 274.061 156.935 274.061H149.08C154.908 274.061 159.637 269.138 159.637 263.07V93.3019C159.637 87.2337 154.908 82.311 149.08 82.311H156.935C162.763 82.3104 167.487 87.2337 167.487 93.3019Z" fill="#20CFA2"/>
<path d="M84.0509 223.245C81.6169 223.245 79.6447 221.191 79.6447 218.657V101.142C79.6447 98.6082 81.6174 96.555 84.0509 96.555C86.485 96.555 88.4572 98.6088 88.4572 101.142V218.657C88.4578 221.191 86.485 223.245 84.0509 223.245Z" fill="#20CFA2"/>
<path d="M36.2217 243.785H23.8157C21.3816 243.785 19.4095 241.732 19.4095 239.198C19.4095 236.665 21.3822 234.611 23.8157 234.611H36.2217C38.6558 234.611 40.6279 236.665 40.6279 239.198C40.6279 241.732 38.6558 243.785 36.2217 243.785Z" fill="#20CFA2"/>
<path d="M131.314 258.374H23.8157C21.3816 258.374 19.4095 256.32 19.4095 253.787C19.4095 251.252 21.3822 249.199 23.8157 249.199H131.314C133.748 249.199 135.72 251.253 135.72 253.787C135.721 256.32 133.748 258.374 131.314 258.374Z" fill="#20CFA2"/>
<path d="M60.01 149.745C55.1857 154.767 48.7725 157.533 41.9505 157.533C35.1284 157.533 28.7147 154.767 23.891 149.746C19.0673 144.724 16.4107 138.046 16.4107 130.944C16.4107 123.841 19.0673 117.164 23.891 112.142C28.7147 107.12 35.1284 104.355 41.9505 104.355C56.0332 104.355 67.4902 116.282 67.4902 130.944C67.4908 138.046 64.8337 144.723 60.01 149.745Z" fill="#20CFA2"/>
<path d="M41.9522 149.999C52.0597 149.999 60.2535 141.469 60.2535 130.946C60.2535 120.423 52.0597 111.892 41.9522 111.892C31.8446 111.892 23.6508 120.423 23.6508 130.946C23.6508 141.469 31.8446 149.999 41.9522 149.999Z" fill="#FEAD44"/>
<path d="M36.1829 137.416C33.7488 137.416 31.7767 135.363 31.7767 132.829V129.059C31.7767 126.525 33.7494 124.471 36.1829 124.471C38.6164 124.471 40.5891 126.525 40.5891 129.059V132.829C40.5891 135.363 38.6164 137.416 36.1829 137.416Z" fill="#FFCD72"/>
<path d="M60.01 208.779C55.1863 213.8 48.7726 216.566 41.9505 216.566C27.8678 216.566 16.4108 204.638 16.4102 189.977C16.4102 182.874 19.0667 176.197 23.8904 171.175C28.7141 166.153 35.1278 163.388 41.9499 163.388C48.772 163.388 55.1857 166.153 60.0094 171.175C64.8331 176.197 67.4897 182.874 67.4897 189.977C67.4902 197.079 64.8337 203.757 60.01 208.779Z" fill="#20CFA2"/>
<path d="M41.9522 209.03C52.0597 209.03 60.2535 200.499 60.2535 189.976C60.2535 179.453 52.0597 170.923 41.9522 170.923C31.8446 170.923 23.6508 179.453 23.6508 189.976C23.6508 200.499 31.8446 209.03 41.9522 209.03Z" fill="#FEAD44"/>
<path d="M36.1829 196.449C33.7488 196.449 31.7767 194.396 31.7767 191.862V188.092C31.7767 185.558 33.7494 183.504 36.1829 183.504C38.6164 183.504 40.5891 185.558 40.5891 188.092V191.862C40.5891 194.396 38.6164 196.449 36.1829 196.449Z" fill="#FFCD72"/>
<path d="M143.593 149.745C138.77 154.767 132.356 157.533 125.534 157.533C111.451 157.533 99.9934 145.605 99.994 130.944C99.994 123.841 102.651 117.164 107.474 112.142C112.298 107.12 118.712 104.355 125.534 104.354C139.616 104.354 151.073 116.282 151.073 130.943C151.073 138.046 148.417 144.723 143.593 149.745Z" fill="#20CFA2"/>
<path d="M125.531 149.999C135.639 149.999 143.833 141.469 143.833 130.946C143.833 120.423 135.639 111.892 125.531 111.892C115.424 111.892 107.23 120.423 107.23 130.946C107.23 141.469 115.424 149.999 125.531 149.999Z" fill="#FEAD44"/>
<path d="M119.766 137.416C117.332 137.416 115.359 135.363 115.359 132.829V129.059C115.359 126.525 117.332 124.471 119.766 124.471C122.2 124.471 124.172 126.525 124.172 129.059V132.829C124.172 135.363 122.2 137.416 119.766 137.416Z" fill="#FFCD72"/>
<path d="M143.593 208.779C138.77 213.8 132.356 216.566 125.534 216.567C118.712 216.567 112.298 213.801 107.474 208.779C102.651 203.757 99.9934 197.079 99.994 189.977C99.994 182.874 102.651 176.197 107.474 171.175C112.298 166.153 118.712 163.388 125.534 163.387C132.356 163.387 138.77 166.153 143.593 171.175C148.417 176.197 151.073 182.874 151.073 189.976C151.073 197.079 148.417 203.757 143.593 208.779Z" fill="#20CFA2"/>
<path d="M125.531 209.03C135.639 209.03 143.833 200.499 143.833 189.976C143.833 179.453 135.639 170.923 125.531 170.923C115.424 170.923 107.23 179.453 107.23 189.976C107.23 200.499 115.424 209.03 125.531 209.03Z" fill="#FEAD44"/>
<path d="M119.766 196.449C117.332 196.449 115.359 194.396 115.359 191.862V188.092C115.359 185.558 117.332 183.504 119.766 183.504C122.2 183.504 124.172 185.558 124.172 188.092V191.862C124.172 194.396 122.2 196.449 119.766 196.449Z" fill="#FFCD72"/>
<path d="M200.316 262.514C200.316 283.291 184.137 300.129 164.18 300.129C159.34 300.129 154.723 299.146 150.5 297.345C149.919 297.094 149.344 296.832 148.775 296.551C147.661 296.007 146.581 295.408 145.531 294.749C135.054 288.159 128.044 276.189 128.044 262.515C128.044 248.743 135.142 236.705 145.748 230.146C146.804 229.492 147.883 228.894 149.004 228.362C149.573 228.087 150.154 227.825 150.74 227.587C154.483 226.017 158.537 225.089 162.784 224.918C163.247 224.905 163.71 224.894 164.18 224.894C177.103 224.888 188.449 231.954 194.831 242.587C198.304 248.357 200.316 255.191 200.316 262.514Z" fill="#6CBEFF"/>
<path d="M152.453 295.433C151.819 296.092 151.168 296.734 150.5 297.345C149.919 297.094 149.344 296.832 148.775 296.551C147.661 296.007 146.581 295.408 145.531 294.749C135.054 288.159 128.044 276.189 128.044 262.515C128.044 248.743 135.142 236.705 145.748 230.146C146.804 229.492 147.883 228.894 149.004 228.362C149.573 228.087 150.154 227.825 150.74 227.587C151.321 228.13 151.896 228.692 152.454 229.272C169.97 247.514 169.97 277.196 152.453 295.433Z" fill="#0095F2"/>
<path d="M176.067 278.088H152.289C149.855 278.088 147.883 276.034 147.883 273.501C147.883 270.967 149.855 268.914 152.289 268.914H176.067C178.502 268.914 180.474 270.967 180.474 273.501C180.474 276.034 178.501 278.088 176.067 278.088Z" fill="#0095F2"/>
<path d="M120.678 299.974C140.635 299.974 156.813 283.131 156.813 262.354C156.813 241.577 140.635 224.734 120.678 224.734C100.721 224.734 84.5432 241.577 84.5432 262.354C84.5432 283.131 100.721 299.974 120.678 299.974Z" fill="#A3E9FB"/>
<path d="M121.62 283.466C120.492 283.466 119.365 283.018 118.504 282.122L101.69 264.617C99.9695 262.825 99.9695 259.92 101.691 258.129C103.411 256.337 106.201 256.338 108.15 258.366L124.963 275.871C126.457 277.426 126.457 280.331 124.736 282.123C123.875 283.017 122.747 283.466 121.62 283.466Z" fill="#6CBEFF"/>
</svg>
